<svg width="50" height="50" viewBox="0 0 50 50" fill="none" xmlns="http://www.w3.org/2000/svg">
<path d="M22.2099 4.76074C16.4417 10.5292 15.915 19.5844 20.6289 25.954L15.7768 30.8063C14.8336 31.7495 14.8336 33.2793 15.7768 34.2235C16.72 35.1667 18.2497 35.1667 19.1939 34.2235L24.046 29.3712C30.4152 34.0853 39.47 33.5586 45.2383 27.7901C51.5872 21.4409 51.5872 11.11 45.2383 4.76171C38.8893 -1.58659 28.5579 -1.58756 22.2099 4.76074ZM41.8212 24.3729C37.9422 28.2521 31.9508 28.7604 27.5171 25.8998L29.4325 23.9844C30.3756 23.0412 30.3756 21.5114 29.4325 20.5672C28.4893 19.624 26.9595 19.624 26.0154 20.5672L24.1001 22.4826C21.2396 18.0488 21.748 12.0571 25.6269 8.17794C30.0915 3.71316 37.3566 3.71316 41.8212 8.17794C46.2858 12.6427 46.2858 19.9081 41.8212 24.3729ZM27.1402 35.6373C28.0834 36.5805 28.0834 38.1103 27.1402 39.0545L16.9026 49.2926C15.9595 50.2358 14.4297 50.2358 13.4856 49.2926C12.5424 48.3494 12.5424 46.8196 13.4856 45.8754L23.7242 35.6373C24.6673 34.6941 26.1971 34.6941 27.1402 35.6373ZM0.707376 36.5138C-0.235792 35.5706 -0.235792 34.0408 0.707376 33.0966L10.946 22.8576C11.8891 21.9144 13.4189 21.9144 14.363 22.8576C15.3062 23.8008 15.3062 25.3306 14.363 26.2748L4.12443 36.5138C3.18029 37.458 1.65151 37.458 0.707376 36.5138Z" fill="#191B20"/>
</svg>
